<mxfile host="app.diagrams.net" modified="2024-06-27T10:17:50.173Z" agent="Mozilla/5.0 (Windows NT 10.0; Win64; x64) AppleWebKit/537.36 (KHTML, like Gecko) Chrome/126.0.0.0 Safari/537.36" version="24.6.3" etag="TWx3nKKTDZ6DMRoVtSut" type="github">
  <diagram name="PÃ¡gina-1" id="ejCLsxJSoO1E6Sqj3R7A">
    <mxGraphModel>
      <root>
        <mxCell id="0" />
        <mxCell id="1" parent="0" />
      </root>
    </mxGraphModel>
  </diagram>
</mxfile>
